# xmcd
# Track frame offsets:
# 150
# 11035
# 22880
# 38796
# 55499
# 70252
# 89681
# 106130
# 136734
# 148618
# 163723
# 186032
# 202908
#
# Disc length: 2950 seconds
# Revision: 0
# Processed by: cddbd v1.5PL3 Copyright (c) Steve Scherf et al.
# Submitted via: VisiTrax 2.9.7.197 - For more info visit www.synapsa.com
#
DISCID=ad0b840d
DTITLE=Beausoleil - Vintage Beausoleil
DYEAR=2003
DGENRE=Cajun
TTITLE0=Acadian Two-Step
TTITLE1=Belizaire The Cajun
TTITLE2=Cajun Crawl
TTITLE3=Cajun Zydeco
TTITLE4=Chez Seychelles
TTITLE5=Donnez Moi Pauline
TTITLE6=Kolinda
TTITLE7=La Chanson de Mardi Gras
TTITLE8=La Valse Des Jonglemonts
TTITLE9=Les Blues De Chaleur
TTITLE10=Ma Vie S'est Arretee
TTITLE11=Mon Vieux Wagon
TTITLE12=Tasso McGee's Reel
EXTD=D/L 7-2003
EXTT0=
EXTT1=
EXTT2=
EXTT3=
EXTT4=
EXTT5=
EXTT6=
EXTT7=
EXTT8=
EXTT9=
EXTT10=
EXTT11=
EXTT12=
PLAYORDER=
